#!OML:ASF E:\motion texture\Top Level 1\Subject 1\Session 1\male.ASF
:FULLY-SPECIFIED
:DEGREES
731
root -37.4058 17.9935 3.74605 846.815 -93.4292 -848.822
lowerback 3.50722 -4.4233 -5.19536
upperback -0.943435 -6.09972 1.66027
thorax -2.21441 -2.96269 4.90688
lowerneck -19.4725 -1.60283 -4.66378
upperneck 16.8908 -2.13487 5.82588
head 8.58757 -0.707444 2.46515
rclavicle 6.93758e-014 3.18055e-015
rhumerus -65.0095 8.27778 -76.0755
rradius 55.5183
rwrist -9.55166
rhand -11.472 -9.70172
rfingers 7.12502
rthumb 14.5658 -39.1703
lclavicle 6.93758e-014 3.18055e-015
lhumerus 20.8209 -9.29422 77.8834
lradius 56.1603
lwrist -1.61387
lhand -12.5327 2.16294
lfingers 7.12502
lthumb 13.5436 31.7025
rfemur -77.7676 -9.68979 21.2679
rtibia 72.3813
rfoot 193.872 173.445
rtoes 16.0182
lfemur 7.12196 -5.70784 -27.5991
ltibia 22.88
lfoot 886.981 -543.651
ltoes -10.8122
732
root -37.5499 17.9788 3.73837 844.916 -93.4202 -846.612
lowerback 3.23329 -4.37573 -5.17734
upperback -1.04084 -6.02372 1.63756
thorax -2.17516 -2.92433 4.85165
lowerneck -19.4611 -1.62901 -4.67797
upperneck 16.8827 -2.16317 5.80965
head 8.58444 -0.723555 2.45813
rclavicle -9.51682e-015 -2.38542e-015
rhumerus -64.8149 8.27641 -76.3045
rradius 55.7613
rwrist -9.663
rhand -11.4813 -9.73555
rfingers 7.12502
rthumb 14.5568 -39.2048
lclavicle -9.51682e-015 -2.38542e-015
lhumerus 20.5838 -9.41523 77.9414
lradius 56.2206
lwrist -1.66338
lhand -12.5167 2.17091
lfingers 7.12502
lthumb 13.5591 31.7094
rfemur -76.6739 -9.65862 21.237
rtibia 70.9669
rfoot 194.538 173.607
rtoes 16.0458
lfemur 7.39732 -5.55328 -27.5605
ltibia 22.7001
lfoot 886.918 -543.899
ltoes -11.1812
733
root -37.6962 17.9629 3.73018 843.885 -93.4103 -845.247
lowerback 2.92989 -4.33759 -5.13164
upperback -1.14697 -5.95787 1.62887
thorax -2.12827 -2.89161 4.7941
lowerneck -19.4403 -1.65639 -4.69614
upperneck 16.8678 -2.19376 5.80121
head 8.57757 -0.740354 2.45404
rclavicle -3.03147e-015 -2.38542e-015
rhumerus -64.5847 8.27247 -76.5445
rradius 56.0154
rwrist -9.78969
rhand -11.5234 -9.76151
rfingers 7.12502
rthumb 14.5162 -39.2337
lclavicle -3.03147e-015 -2.38542e-015
lhumerus 20.272 -9.55481 78.0416
lradius 56.2791
lwrist -1.70837
lhand -12.5138 2.19813
lfingers 7.12502
lthumb 13.5619 31.7365
rfemur -75.5069 -9.64626 21.195
rtibia 69.5777
rfoot 195.263 173.606
rtoes 16.2326
lfemur 7.65724 -5.43616 -27.493
ltibia 22.5206
lfoot 886.846 -544.121
ltoes -11.5218
734
root -37.8451 17.9454 3.72091 843.653 -93.4078 -844.661
lowerback 2.60205 -4.31034 -5.07675
upperback -1.2636 -5.9055 1.63151
thorax -2.0765 -2.86581 4.74227
lowerneck -19.3962 -1.68304 -4.73092
upperneck 16.8401 -2.22413 5.81642
head 8.56275 -0.756072 2.46063
rclavicle -3.94091e-014 -7.95139e-015
rhumerus -64.3171 8.26659 -76.7899
rradius 56.2678
rwrist -9.90976
rhand -11.5592 -9.79349
rfingers 7.12502
rthumb 14.4817 -39.2681
lclavicle -3.94091e-014 -7.95139e-015
lhumerus 19.8879 -9.71819 78.1725
lradius 56.3256
lwrist -1.74826
lhand -12.5098 2.23283
lfingers 7.12502
lthumb 13.5657 31.7709
rfemur -74.2694 -9.65259 21.1312
rtibia 68.2232
rfoot 196.013 173.454
rtoes 16.5473
lfemur 7.91744 -5.36246 -27.4088
ltibia 22.3251
lfoot 886.771 -544.325
ltoes -11.8379
735
root -37.9962 17.9268 3.71042 844.364 -93.4151 -844.995
lowerback 2.24827 -4.29581 -5.01337
upperback -1.38975 -5.86917 1.64571
thorax -2.01762 -2.84831 4.69654
lowerneck -19.3366 -1.71036 -4.77158
upperneck 16.7995 -2.25729 5.84765
head 8.54132 -0.772103 2.47314
rclavicle -2.93953e-014 3.10104e-014
rhumerus -64.0102 8.25177 -77.0401
rradius 56.5199
rwrist -10.0194
rhand -11.611 -9.80187
rfingers 7.12502
rthumb 14.4318 -39.2801
lclavicle -2.93953e-014 3.10104e-014
lhumerus 19.4303 -9.90756 78.3366
lradius 56.3622
lwrist -1.78084
lhand -12.5156 2.26465
lfingers 7.12502
lthumb 13.5601 31.8031
rfemur -72.967 -9.67932 21.0452
rtibia 66.9036
rfoot 196.749 173.174
rtoes 16.9728
lfemur 8.16795 -5.33747 -27.3009
ltibia 22.1226
lfoot 886.699 -544.525
ltoes -12.1402
736
root -38.15 17.9067 3.6985 845.914 -93.4434 -846.155
lowerback 1.8765 -4.29511 -4.95664
upperback -1.52361 -5.85137 1.66886
thorax -1.95282 -2.84015 4.66311
lowerneck -19.273 -1.73977 -4.81127
upperneck 16.756 -2.29484 5.88413
head 8.51855 -0.789688 2.48668
rclavicle 2.68608e-014 -1.82882e-014
rhumerus -63.6584 8.2286 -77.293
rradius 56.7586
rwrist -10.1063
rhand -11.671 -9.78971
rfingers 7.12502
rthumb 14.374 -39.272
lclavicle 2.68608e-014 -1.82882e-014
lhumerus 18.9035 -10.1271 78.5261
lradius 56.3835
lwrist -1.81035
lhand -12.5292 2.29912
lfingers 7.12502
lthumb 13.547 31.8384
rfemur -71.5973 -9.7262 20.9247
rtibia 65.617
rfoot 197.448 172.831
rtoes 17.4395
lfemur 8.40682 -5.34905 -27.1736
ltibia 21.9283
lfoot 886.625 -544.745
ltoes -12.4435
737
root -38.3063 17.8852 3.68466 848.228 -93.4906 -848.066
lowerback 1.49043 -4.30615 -4.90769
upperback -1.66321 -5.84954 1.70126
thorax -1.88238 -2.84006 4.64289
lowerneck -19.2087 -1.77219 -4.84927
upperneck 16.7109 -2.3381 5.92548
head 8.49553 -0.809399 2.50086
rclavicle 4.86029e-014 -7.95139e-015
rhumerus -63.2611 8.19017 -77.5465
rradius 56.9776
rwrist -10.159
rhand -11.7242 -9.77195
rfingers 7.12502
rthumb 14.3228 -39.2579
lclavicle 4.86029e-014 -7.95139e-015
lhumerus 18.3085 -10.3807 78.7374
lradius 56.3885
lwrist -1.83773
lhand -12.5487 2.33019
lfingers 7.12502
lthumb 13.5282 31.8708
rfemur -70.1583 -9.77722 20.7724
rtibia 64.3615
rfoot 198.095 172.479
rtoes 17.9199
lfemur 8.6358 -5.38998 -27.0143
ltibia 21.7431
lfoot 886.556 -544.996
ltoes -12.7411
738
root -38.4657 17.8621 3.66906 851.21 -93.5652 -850.647
lowerback 1.09501 -4.32812 -4.86528
upperback -1.80692 -5.86273 1.73933
thorax -1.80803 -2.84757 4.63165
lowerneck -19.1369 -1.81065 -4.88538
upperneck 16.6677 -2.39046 5.96545
head 8.47244 -0.833612 2.51311
rclavicle 3.96824e-014 -3.18055e-015
rhumerus -62.8253 8.12982 -77.7998
rradius 57.1758
rwrist -10.1852
rhand -11.7569 -9.77276
rfingers 7.12502
rthumb 14.2913 -39.261
lclavicle 3.96824e-014 -3.18055e-015
lhumerus 17.6411 -10.6764 78.9718
lradius 56.3755
lwrist -1.86536
lhand -12.5775 2.35794
lfingers 7.12502
lthumb 13.5005 31.9003
rfemur -68.6366 -9.83645 20.5897
rtibia 63.1278
rfoot 198.706 172.18
rtoes 18.4249
lfemur 8.86648 -5.44712 -26.8227
ltibia 21.5709
lfoot 886.492 -545.294
ltoes -13.0423
739
root -38.628 17.8375 3.65148 854.604 -93.6712 -853.646
lowerback 0.698799 -4.36146 -4.83942
upperback -1.94744 -5.89194 1.78113
thorax -1.72618 -2.86325 4.6331
lowerneck -19.0813 -1.85127 -4.91559
upperneck 16.6301 -2.44777 6.00872
head 8.45439 -0.859183 2.52496
rclavicle 2.63141e-014 -3.18055e-015
rhumerus -62.3347 8.04844 -78.0605
rradius 57.3484
rwrist -10.1887
rhand -11.7883 -9.79677
rfingers 7.12502
rthumb 14.261 -39.2871
lclavicle 2.63141e-014 -3.18055e-015
lhumerus 16.9097 -11.0051 79.2198
lradius 56.3459
lwrist -1.89485
lhand -12.6158 2.37995
lfingers 7.12502
lthumb 13.4635 31.9248
rfemur -67.0312 -9.89033 20.3774
rtibia 61.9104
rfoot 199.301 171.989
rtoes 18.9133
lfemur 9.09581 -5.50644 -26.5975
ltibia 21.4219
lfoot 886.443 -545.646
ltoes -13.3361
740
root -38.7936 17.8112 3.63176 858.373 -93.795 -857.035
lowerback 0.305237 -4.39989 -4.81428
upperback -2.08948 -5.92857 1.83226
thorax -1.64556 -2.88267 4.64465
lowerneck -19.0166 -1.89717 -4.95094
upperneck 16.5931 -2.51253 6.05725
head 8.43558 -0.888276 2.53851
rclavicle 1.32192e-014 -9.54166e-015
rhumerus -61.8103 7.94323 -78.3235
rradius 57.495
rwrist -10.1788
rhand -11.7957 -9.85218
rfingers 7.12502
rthumb 14.2539 -39.343
lclavicle 1.32192e-014 -9.54166e-015
lhumerus 16.0993 -11.3803 79.4905
lradius 56.3025
lwrist -1.91972
lhand -12.6631 2.41016
lfingers 7.12502
lthumb 13.418 31.958
rfemur -65.3308 -9.92251 20.1628
rtibia 60.7003
rfoot 199.916 171.927
rtoes 19.3766
lfemur 9.32891 -5.55667 -26.3149
ltibia 21.303
lfoot 886.412 -546.049
ltoes -13.6317
741
root -38.9631 17.7834 3.61027 862.349 -93.9481 -860.659
lowerback -0.0851529 -4.44295 -4.79532
upperback -2.22221 -5.97185 1.88865
thorax -1.55526 -2.90584 4.66446
lowerneck -18.9587 -1.95109 -4.97839
upperneck 16.5647 -2.58764 6.09121
head 8.42132 -0.923154 2.54459
rclavicle 3.19546e-014 -1.35174e-014
rhumerus -61.2459 7.80895 -78.5909
rradius 57.6231
rwrist -10.1634
rhand -11.8139 -9.93411
rfingers 7.12502
rthumb 14.2363 -39.4262
lclavicle 3.19546e-014 -1.35174e-014
lhumerus 15.2172 -11.802 79.7873
lradius 56.245
lwrist -1.934
lhand -12.7267 2.44879
lfingers 7.12502
lthumb 13.3567 32.0007
rfemur -63.5189 -9.9418 19.9482
rtibia 59.4866
rfoot 200.579 172.003
rtoes 19.8188
lfemur 9.5762 -5.59311 -25.9873
ltibia 21.2234
lfoot 886.406 -546.506
ltoes -13.9337
742
root -39.1369 17.754 3.5867 866.47 -94.1172 -864.46
lowerback -0.471821 -4.48721 -4.77
upperback -2.34882 -6.01711 1.95291
thorax -1.46033 -2.93042 4.68851
lowerneck -18.8942 -2.01109 -5.01496
upperneck 16.5417 -2.67042 6.13073
head 8.4084 -0.961841 2.55316
rclavicle -6.6742e-014 -5.56597e-015
rhumerus -60.6539 7.6491 -78.8676
rradius 57.74
rwrist -10.1481
rhand -11.8087 -10.071
rfingers 7.12502
rthumb 14.2413 -39.5627
lclavicle -6.6742e-014 -5.56597e-015
lhumerus 14.2478 -12.2653 80.1155
lradius 56.177
lwrist -1.93796
lhand -12.7933 2.49567
lfingers 7.12502
lthumb 13.2924 32.0518
rfemur -61.5889 -9.92913 19.7592
rtibia 58.2605
rfoot 201.297 172.178
rtoes 20.2484
lfemur 9.84531 -5.6152 -25.6014
ltibia 21.1782
lfoot 886.437 -546.999
ltoes -14.2663
743
root -39.3157 17.7233 3.56139 870.707 -94.3042 -868.408
lowerback -0.877411 -4.53243 -4.73997
upperback -2.45177 -6.06263 2.02843
thorax -1.32965 -2.95668 4.71816
lowerneck -18.8794 -2.08328 -5.03011
upperneck 16.5526 -2.76659 6.12883
head 8.41562 -1.00876 2.54274
rclavicle 5.46658e-015 5.56597e-015
rhumerus -60.0101 7.46386 -79.1532
rradius 57.8488
rwrist -10.135
rhand -11.8024 -10.2311
rfingers 7.12502
rthumb 14.2474 -39.7224
lclavicle 5.46658e-015 5.56597e-015
lhumerus 13.2146 -12.7654 80.4773
lradius 56.1013
lwrist -1.91583
lhand -12.8651 2.58258
lfingers 7.12502
lthumb 13.2232 32.1432
rfemur -59.5357 -9.88684 19.61
rtibia 57.0171
rfoot 202.057 172.393
rtoes 20.6708
lfemur 10.1252 -5.62779 -25.1584
ltibia 21.1912
lfoot 886.509 -547.519
ltoes -14.6433
